<svg xmlns="http://www.w3.org/2000/svg" viewBox="0 0 8 10">
  <g fill="#10a37f">
    <rect x="2" width="4" height="1"/>
    <rect x="1" y="1" width="6" height="1"/>
    <rect x="1" y="2" width="1" height="2"/>
    <rect x="6" y="2" width="1" height="2"/>
    <rect x="1" y="4" width="6" height="1"/>
    <rect y="5" width="1" height="2"/>
    <rect x="7" y="5" width="1" height="2"/>
  </g>
  <g fill="#0a0b12">
    <rect x="2" y="2" width="4" height="1"/>
    <rect x="2" y="3" width="1" height="1"/>
    <rect x="5" y="3" width="1" height="1"/>
  </g>
  <g fill="#baf0e0">
    <rect x="3" y="3" width="2" height="1"/>
    <rect x="3" y="6" width="2" height="1"/>
  </g>
  <g fill="#0a6b54">
    <rect x="1" y="5" width="6" height="1"/>
    <rect x="1" y="6" width="2" height="1"/>
    <rect x="5" y="6" width="2" height="1"/>
    <rect x="1" y="7" width="6" height="1"/>
    <rect x="2" y="8" width="1" height="1"/>
    <rect x="5" y="8" width="1" height="1"/>
    <rect x="1" y="9" width="2" height="1"/>
    <rect x="5" y="9" width="2" height="1"/>
  </g>
</svg>
